<svg xmlns="http://www.w3.org/2000/svg" viewBox="0 0 240 240" width="100%" height="100%" fill="none">
  <defs>
    <linearGradient id="markGold" x1="0%" y1="100%" x2="100%" y2="0%">
      <stop offset="0%" stop-color="#9E7739" />
      <stop offset="50%" stop-color="#BA945A" />
      <stop offset="100%" stop-color="#D1AF7B" />
    </linearGradient>
  </defs>

  <!-- Centered 'O' glyph -->
  <g transform="translate(-122, 10)">
    <!-- O outer & inner counter -->
    <path fill="#1D1D1B" fill-rule="evenodd" d="M 242,34 C 292,34 330,68 330,109 C 330,150 292,184 242,184 C 192,184 154,150 154,109 C 154,68 192,34 242,34 Z M 242,40 C 204,40 182,70 182,109 C 182,148 204,178 242,178 C 280,178 302,148 302,109 C 302,70 280,40 242,40 Z" />

    <!-- Woman Face Silhouette in gold -->
    <path d="M 244,52 C 248,63 252,73 253,83 C 252,86 250,88 250,90 C 252,94 261,98 263,102 C 263,105 258,107 255,110 C 256,112 260,114 259,117 C 257,119 254,120 254,121 C 256,123 258,125 257,127 C 254,129 252,130 252,132 C 254,135 258,138 257,141 C 254,147 248,152 246,156 C 246,163 252,170 255,175" 
          fill="none" stroke="url(#markGold)" stroke-width="3.8" stroke-linecap="round" stroke-linejoin="round" />
    
    <path d="M 236,172 C 242,168 250,170 256,174" 
          fill="none" stroke="url(#markGold)" stroke-width="3" stroke-linecap="round" />

    <!-- Flowing Hair Locks in gold -->
    <path fill="url(#markGold)" d="M 216,45 C 204,58 194,78 192,100 C 190,122 194,144 204,162 C 200,154 196,138 196,120 C 196,98 204,74 218,53 Z" />
    <path fill="url(#markGold)" d="M 232,42 C 224,62 212,88 216,116 C 220,138 214,156 205,170 C 203,164 209,148 208,130 C 206,102 218,72 234,48 Z" />
    <path fill="url(#markGold)" d="M 244,52 C 236,72 230,98 234,124 C 238,146 230,162 218,174 C 224,163 226,148 224,130 C 222,104 228,76 246,56 Z" />

    <!-- Botanical Golden Leaf hovering above -->
    <path fill="url(#markGold)" d="M 238,22 C 242,12 256,4 272,3 C 268,14 254,21 238,22 Z" />
  </g>
</svg>